# xmcd
#
# Track frame offsets: 
#        150
#        5738
#        25316
#        45468
#        54805
#        88488
#        121731
#        141859
#        172370
#        191354
#
# Disc length: 3348 seconds
#
# Revision: 3
# Processed by: cddbd v1.5.2PL0 Copyright (c) Steve Scherf et al.
# Submitted via: ExactAudioCopy v1.0b3
#
DISCID=850d120a
DTITLE=Rhapsody - Symphony Of Enchanted Lands
DYEAR=1998
DGENRE=Symphonic Power Metal
TTITLE0=Epicus Furor
TTITLE1=Emerald Sword
TTITLE2=Wisdom Of The Kings
TTITLE3=Heroes Of The Lost Valley
TTITLE4=Eternal Glory
TTITLE5=Beyond The Gates Of Infinity
TTITLE6=Wings Of Destiny
TTITLE7=The Dark Tower Of Abyss
TTITLE8=Riding The Winds Of Eternity
TTITLE9=Symphony Of Enchanted Lands
EXTD=YEAR: 1998
EXTT0=
EXTT1=
EXTT2=
EXTT3=
EXTT4=
EXTT5=
EXTT6=
EXTT7=
EXTT8=
EXTT9=
PLAYORDER=
